<?xml version="1.0" encoding="UTF-8"?>
<svg id="a" data-name="レイヤー 1" xmlns="http://www.w3.org/2000/svg" xmlns:xlink="http://www.w3.org/1999/xlink" viewBox="0 0 42.7 46.555556">
  <defs>
    <style>
      .i {
        fill: url(#h);
      }

      .j {
        fill: #4d4d4d;
      }

      .k {
        fill: url(#f);
      }

      .l {
        fill: url(#g);
      }

      .m {
        fill: url(#e);
      }

      .n {
        fill: url(#d);
      }

      .o {
        fill: url(#b);
      }

      .p {
        fill: url(#c);
      }
    </style>
    <linearGradient id="b" data-name="新規グラデーションスウォッチ 3" x1=".888477" y1="23.280098" x2="41.737476" y2="23.280098" gradientUnits="userSpaceOnUse">
      <stop offset="0" stop-color="#86e3ce"/>
      <stop offset="1" stop-color="#d0e6a5"/>
    </linearGradient>
    <linearGradient id="c" data-name="新規グラデーションスウォッチ 3" x1="16.719262" y1="45.055556" x2="19.617196" y2="45.055556" xlink:href="#b"/>
    <linearGradient id="d" data-name="新規グラデーションスウォッチ 3" x1="12.748171" y1="44.722222" x2="14.921621" y2="44.722222" xlink:href="#b"/>
    <linearGradient id="e" data-name="新規グラデーションスウォッチ 3" x1="9.777079" y1="43.5" x2="11.226046" y2="43.5" xlink:href="#b"/>
    <linearGradient id="f" data-name="新規グラデーションスウォッチ 3" x1="18.052596" y1="1.5" x2="20.950529" y2="1.5" xlink:href="#b"/>
    <linearGradient id="g" data-name="新規グラデーションスウォッチ 3" x1="22.748171" y1="1.833333" x2="24.921621" y2="1.833333" xlink:href="#b"/>
    <linearGradient id="h" data-name="新規グラデーションスウォッチ 3" x1="26.443746" y1="3.055556" x2="27.892713" y2="3.055556" xlink:href="#b"/>
  </defs>
  <g>
    <path class="o" d="m13.466706,1.927016c-3.568223,1.885235-4.133996,5.873472-4.287293,9.536128-.205998,4.921839-.041411,9.94527-1.90962,14.609508-.49622,1.238881-1.870205,3.702432-3.628751,2.911367-.611319-.274996-.912359-.83109-.378774-1.192704.473573-.320943,1.366038-.025382,1.880768.058552,3.447154.562111,6.962183.777741,10.442559,1.024313,7.982159.565508,18.333815,2.274931,24.238288-4.520512,3.013661-3.468414,3.936824-8.364641,1.371921-12.373829-2.681316-4.191153-8.360084-4.42812-11.909514-1.2415-4.00445,3.595129-5.654371,9.882904-5.85391,15.061439-.119332,3.09698.467428,6.024565,1.197397,9.013784.512006,2.096665,1.169219,5.979257-1.526386,7.009196-1.785521.682214-1.010654,3.583706.797519,2.892837,2.106977-.805036,3.507425-2.572797,3.998085-4.770656.600012-2.687691-.266141-5.315222-.873238-7.914717-1.223204-5.237567-.612594-10.943252,1.864089-15.739541.890624-1.724762,2.111297-3.545092,3.937892-4.379991,2.206684-1.00863,4.790012-.134389,5.986663,1.925239,2.426488,4.176374-.407776,8.856647-4.262934,10.887226-3.887767,2.047754-8.380388,1.78452-12.625691,1.55039-3.915972-.215968-7.832337-.471856-11.737994-.831106-1.47631-.135794-2.956043-.273479-4.419544-.514321-1.703832-.280391-3.520237-.482372-4.813351.92374-1.620082,1.761651-1.074427,4.242068.851515,5.522254,1.492875.992323,3.431252.857479,4.963365.021973,2.369919-1.292386,3.390686-4.160198,4.074102-6.603079.781971-2.795169,1.080959-5.710291,1.199479-8.6025.099541-2.429054-.016431-4.911748.342141-7.322471.273868-1.841246.882475-3.445613,2.595378-4.350609,1.707697-.902245.193411-3.492589-1.514157-2.590412h0Z"/>
    <path class="p" d="m18.168229,46.555556c1.930357,0,1.933554-3,0-3-1.930357,0-1.933554,3,0,3h0Z"/>
    <path class="n" d="m13.834896,45.847222c1.447768,0,1.450166-2.25,0-2.25-1.447768,0-1.450166,2.25,0,2.25h0Z"/>
    <path class="m" d="m10.501563,44.25c.965178,0,.966777-1.5,0-1.5-.965178,0-.966777,1.5,0,1.5h0Z"/>
    <path class="k" d="m19.501563,3c1.930357,0,1.933554-3,0-3-1.930357,0-1.933554,3,0,3h0Z"/>
    <path class="l" d="m23.834896,2.958333c1.447768,0,1.450166-2.25,0-2.25-1.447768,0-1.450166,2.25,0,2.25h0Z"/>
    <path class="i" d="m27.168229,3.805556c.965178,0,.966777-1.5,0-1.5-.965178,0-.966777,1.5,0,1.5h0Z"/>
  </g>
</svg>