<?xml version="1.0" encoding="UTF-8"?>
<svg id="a" data-name="レイヤー 1" xmlns="http://www.w3.org/2000/svg" xmlns:xlink="http://www.w3.org/1999/xlink" viewBox="0 0 254.202232 46.555556">
  <defs>
    <style>
      .i {
        fill: url(#h);
      }

      .j {
        fill: #4d4d4d;
      }

      .k {
        fill: url(#f);
      }

      .l {
        fill: url(#g);
      }

      .m {
        fill: url(#e);
      }

      .n {
        fill: url(#d);
      }

      .o {
        fill: url(#b);
      }

      .p {
        fill: url(#c);
      }
    </style>
    <linearGradient id="b" data-name="新規グラデーションスウォッチ 3" x1=".888477" y1="23.280098" x2="41.737476" y2="23.280098" gradientUnits="userSpaceOnUse">
      <stop offset="0" stop-color="#86e3ce"/>
      <stop offset="1" stop-color="#d0e6a5"/>
    </linearGradient>
    <linearGradient id="c" data-name="新規グラデーションスウォッチ 3" x1="16.719262" y1="45.055556" x2="19.617196" y2="45.055556" xlink:href="#b"/>
    <linearGradient id="d" data-name="新規グラデーションスウォッチ 3" x1="12.748171" y1="44.722222" x2="14.921621" y2="44.722222" xlink:href="#b"/>
    <linearGradient id="e" data-name="新規グラデーションスウォッチ 3" x1="9.777079" y1="43.5" x2="11.226046" y2="43.5" xlink:href="#b"/>
    <linearGradient id="f" data-name="新規グラデーションスウォッチ 3" x1="18.052596" y1="1.5" x2="20.950529" y2="1.5" xlink:href="#b"/>
    <linearGradient id="g" data-name="新規グラデーションスウォッチ 3" x1="22.748171" y1="1.833333" x2="24.921621" y2="1.833333" xlink:href="#b"/>
    <linearGradient id="h" data-name="新規グラデーションスウォッチ 3" x1="26.443746" y1="3.055556" x2="27.892713" y2="3.055556" xlink:href="#b"/>
  </defs>
  <g>
    <path class="j" d="m68.027496,36.762261h-12.640137c-.687012,0-1.305176-.583984-1.305176-1.270996V12.581597c0-.72168.618164-1.270996,1.305176-1.270996s1.270996.549316,1.270996,1.270996v21.672852h11.369141c.687012,0,1.270508.549805,1.270508,1.236816s-.583496,1.270996-1.270508,1.270996Z"/>
    <path class="j" d="m83.071929,26.251519h-5.838867v9.82373c0,.687012-.549805,1.236328-1.236816,1.236328s-1.270508-.549316-1.270508-1.236328V13.886773c0-.687012.583496-1.236816,1.270508-1.236816h7.384766c3.228516,0,6.285645,2.816406,6.285645,6.800781,0,4.087402-3.43457,6.800781-6.594727,6.800781Zm-.03418-11.094238h-5.804688v8.621582h5.598633c2.266602,0,4.293457-2.026855,4.293457-4.328125,0-2.335449-1.751953-4.293457-4.087402-4.293457Z"/>
    <path class="j" d="m102.445953,25.979058c.28125.437012.15625,1.030273-.280762,1.311035s-1.030273.15625-1.311035-.280762l-1.405273-2.216797v13.767578c0,.562012-.437012.999023-.999023.999023-.561523,0-.967773-.437012-.967773-.999023v-12.956055c-.592773,1.623535-1.373535,3.496582-2.278809,5.370117-.21875.499512-.811523.686523-1.280273.468262-.468262-.21875-.686523-.843262-.468262-1.311523,1.686035-3.527832,3.18457-7.555176,3.996094-10.739258h-2.71582c-.530762,0-.967773-.437012-.967773-.967773s.437012-.967773.967773-.967773h2.74707v-4.808105c0-.561523.40625-.999023.967773-.999023.562012,0,.999023.4375.999023.999023v4.808105h1.936035c.530273,0,.967773.437012.967773.967773s-.4375.967773-.967773.967773h-1.936035v3.309082c.4375-.187012.937012-.03125,1.186523.375l1.810547,2.90332Zm18.794434,8.584961h-1.529785v1.623535c0,.967773-.1875,1.748535-.624512,2.341797-.655762.874023-1.654785.999023-2.653809.999023-.530762,0-.999023-.4375-.999023-.968262,0-.530273.468262-.967773.999023-.967773,1.217773,0,1.342773-.249512,1.342773-1.404785v-1.654297h-10.958008v4.151855c0,.530762-.468262.999023-.999023.999023s-.999023-.468262-.999023-.999023v-4.121094h-1.748535c-.499512,0-.936523-.468262-.936523-.967773s.437012-.936508.936523-.936508h1.748535v-4.807633c0-1.748535,1.030273-3.05957,2.87207-3.05957h3.465332v-1.686035h-7.804688c-.499512,0-.905762-.374512-.905762-.874023s.40625-.905273.905762-.905273h4.276855v-2.029297h-2.466309c-.499512,0-.874023-.374512-.874023-.874023s.374512-.874023.874023-.874023h2.466309v-1.904785h-3.277832c-.499512,0-.874512-.374512-.874512-.874023s.375-.905273.874512-.905273h3.277832v-1.280273c0-.561523.437012-.999023.999023-.999023s.999023.4375.999023.999023v1.280273h4.932617v-1.280273c0-.561523.437012-.999023.999023-.999023s.999023.4375.999023.999023v1.280273h3.746582c.499512,0,.874023.405762.874023.905273s-.374512.874023-.874023.874023h-3.746582v1.904785h2.87207c.499512,0,.874512.374512.874512.874023s-.375.874023-.874512.874023h-2.87207v2.029297h4.495605c.499512,0,.874023.405762.874023.905273s-.374512.874023-.874023.874023h-7.929688v1.686035h3.715332c1.841797,0,2.87207,1.311035,2.87207,3.05957v4.807633h1.529785c.499512,0,.967773.436996.967773.936508s-.468262.967773-.967773.967773Zm-10.052734-5.744141v-2.154297h-3.496582c-.749512,0-.936523.468262-.936523,1.155273v.999023h4.433105Zm0,3.871094v-2.123047h-4.433105v2.123047h4.433105Zm3.371582-15.141113v-1.904785h-4.932617v1.904785h4.932617Zm0,3.777344v-2.029297h-4.932617v2.029297h4.932617Zm3.21582,7.492676v-.999023c0-.687012-.1875-1.155273-.936523-1.155273h-3.715332v2.154297h4.651855Zm0,3.871094v-2.123047h-4.651855v2.123047h4.651855Z"/>
    <path class="j" d="m151.311675,38.154351c-.468262.437012-1.061523.718262-1.716797.718262-.499512,0-.967773-.15625-1.405273-.437012-1.467285-.967773-3.05957-2.747559-4.401855-5.400863-1.748047,1.873031-3.933594,3.746078-6.711914,5.463363-.499512.312012-1.124023.155762-1.436035-.34375-.3125-.499512-.15625-1.123535.343262-1.436035,2.93457-1.810547,5.150879-3.839844,6.868164-5.775391-1.311035-3.21582-2.310059-7.368164-2.528809-12.425293h-9.833984c-.718262,0-.999023.437012-.999023,1.123535v3.652832h4.901367c1.592285,0,2.528809,1.342285,2.528809,2.84082,0,1.936035.0625,3.996094-.499512,5.869629-.499512,1.748047-2.248047,2.71582-3.996094,2.62207-.562012-.03125-1.030273-.468262-.999023-1.030273.03125-.592773.562012-.999023,1.124023-.999023.842773,0,1.685547-.343262,1.935547-1.186035.405762-1.311523.437012-3.809082.437012-5.276367,0-.343262-.125-.811523-.530762-.811523h-4.901367v.499512c0,5.275879-1.186523,9.802734-2.185547,12.238281-.218262.530273-.842773.811523-1.373535.592773-.530762-.218262-.749512-.842773-.530762-1.373535,1.373535-3.465332,1.998047-7.804688,1.998047-11.45752v-6.181641c0-1.810547,1.217773-3.215332,3.09082-3.215332h9.740234v-4.027344c0-.593262.530762-1.061523,1.124023-1.061523s1.061523.468262,1.061523,1.061523v4.027344h8.959961c.562012,0,1.030273.499512,1.030273,1.061523s-.468262,1.030273-1.030273,1.030273h-8.928711c.1875,4.214355.967773,7.710938,1.966797,10.520996,1.436035-1.936035,2.84082-4.402344,3.527832-6.743652.15625-.562012.687012-.905273,1.248535-.749023.562012.155762.936523.749023.780762,1.311035-.655762,2.591309-2.435059,5.712891-4.651855,8.460449,1.311523,2.84082,2.87207,4.651855,3.996094,5.369629.25.15625.28125.1875.499512,0,.437012-.374512.842773-1.373535.967773-1.904297.15625-.562012.687012-.874023,1.249023-.749023.562012.124512.905273.686523.780273,1.248535-.249512.999023-.749023,2.154297-1.498535,2.87207Zm-3.465332-22.758789l-2.029297-1.841797c-.405762-.375-.437012-1.030273-.0625-1.436523.374512-.405762,1.030273-.437012,1.436035-.062012l2.029297,1.810547c.40625.374512.437012,1.030273.0625,1.436035s-1.030273.468262-1.436035.09375Z"/>
    <path class="j" d="m168.64566,15.426812h-3.652832l.843262,1.342285c.280762.437012.124512,1.030273-.3125,1.311523-.437012.280762-1.030273.155762-1.311035-.28125-.499512-.780273-1.092773-1.810547-1.436035-2.372559h-2.373047c-.561523.655762-1.186035,1.342285-1.935547,2.123047-.374512.374512-.967773.374512-1.342285,0-.374512-.375-.405762-.968262-.03125-1.342773,1.311035-1.342285,2.622559-2.93457,3.652832-4.370605.312012-.437012.999023-.562012,1.436035-.280762.437012.280762.499512.936523.218262,1.373535-.124512.187012-.343262.468262-.530273.717773h6.774414c.499512,0,.905273.375.905273.874512s-.405762.905273-.905273.905273Zm.03125,10.021484c0,1.467285-1.217773,2.65332-2.685059,2.65332h-6.025391v10.739746c0,.530762-.437012.967773-.967773.967773s-.967773-.437012-.967773-.967773v-17.170898c0-1.467285,1.217773-2.65332,2.685059-2.65332h5.275879c1.467285,0,2.685059,1.186035,2.685059,2.65332v3.777832Zm-1.904297-2.716309v-1.061523c0-.437012-.34375-.749023-.780762-.749023h-5.275879c-.437012,0-.780762.312012-.780762.749023v1.061523h6.837402Zm0,1.717285h-6.837402v1.748047h6.056641c.437012,0,.780762-.312012.780762-.749023v-.999023Zm9.240723,11.45752c0,1.436035-1.186035,2.622559-2.622559,2.622559h-6.306152c-1.436035,0-2.622559-1.186523-2.622559-2.622559v-3.902344c0-1.436523,1.186523-2.622559,2.622559-2.622559h6.306152c1.436523,0,2.622559,1.186035,2.622559,2.622559v3.902344Zm-1.873047-2.84082v-1.061523c0-.4375-.374512-.812012-.811523-.812012h-6.181641c-.437012,0-.811523.374512-.811523.812012v1.061523h7.804688Zm0,1.748047h-7.804688v1.092773c0,.437012.374512.780273.811523.780273h6.181641c.437012,0,.811523-.343262.811523-.780273v-1.092773Zm8.741211-19.324707h-5.025879l.842773,1.529785c.249512.468262.09375,1.061523-.374512,1.311035s-1.061523.0625-1.311523-.405762l-1.342285-2.435059h-2.747559c-.592773.749023-1.186035,1.529785-1.716797,2.153809-.343262.40625-.936523.4375-1.342285.09375-.40625-.343262-.46875-.936523-.125-1.342285,1.061523-1.249023,2.87207-3.590332,3.652344-4.651855.3125-.437012.999023-.530762,1.436523-.218262.437012.312012.499512.936523.187012,1.373535-.187012.280762-.468262.655762-.624512.811523h8.491699c.499512,0,.905762.375.905762.874023,0,.5-.40625.905762-.905762.905762Zm-.249512,21.104004c0,.655762-.09375,1.186523-.312012,1.686035-.375.811523-1.092773,1.217773-1.936035,1.311035-.374512.03125-.749023.03125-1.123535.03125-.530762,0-.936523-.405762-.936523-.936523s.405762-.936523.936523-.936523c.405762,0,.686523-.03125.905273-.0625.562012-.09375.530762-.624023.530762-1.092773v-8.491699h-6.244141c-1.467285,0-2.65332-1.186035-2.65332-2.65332v-3.777832c0-1.467285,1.186035-2.65332,2.65332-2.65332h5.525879c1.467285,0,2.653809,1.186035,2.653809,2.65332v14.922852Zm-1.904297-13.861328v-1.061523c0-.437012-.3125-.749023-.749512-.749023h-5.525879c-.437012,0-.749023.312012-.749023.749023v1.061523h7.024414Zm0,3.465332v-1.748047h-7.024414v.999023c0,.437012.312012.749023.749023.749023h6.275391Z"/>
    <path class="j" d="m214.607574,35.313531h-12.019531v3.933594c0,.562012-.499023,1.030273-1.061035,1.030273s-1.061523-.468262-1.061523-1.030273v-3.933594h-12.113281c-.530762,0-.967773-.437012-.967773-.967773s.437012-.999023.967773-.999023h12.144531v-2.685059h-6.244141c-2.278809,0-3.496582-.999023-3.496582-3.402832v-5.588379c0-2.278809,1.092773-3.434082,3.496582-3.434082h11.55127c1.217773-1.529785,2.90332-3.714844,4.370605-5.557129.34375-.437012,1.061523-.499512,1.498535-.155762.437012.343262.499512.999023.15625,1.436035l-3.402832,4.276855h.280762c2.403809,0,3.465332,1.186523,3.465332,3.434082v5.588379c0,2.279297-1.061523,3.402832-3.465332,3.402832h-6.149902v2.685059h12.050293c.530762,0,.967773.468262.967773.999023s-.437012.967773-.967773.967773Zm-19.699219-19.668457c.343262.4375.280762,1.061523-.15625,1.405273-.437012.343262-1.061523.280762-1.404785-.15625l-2.154297-2.685059c-.343262-.437012-.280762-1.061523.15625-1.404785s1.061523-.280762,1.404785.15625l2.154297,2.68457Zm5.588379,7.898926v-3.34082h-6.244141c-1.186035,0-1.467285.21875-1.467285,1.467285v1.873535h7.711426Zm0,5.182129v-3.309082h-7.711426v1.841797c0,1.186523.21875,1.467285,1.467285,1.467285h6.244141Zm1.841797-13.518066c.312012.468262.1875,1.061523-.280762,1.373535-.46875.3125-1.061523.15625-1.374023-.312012l-1.904297-2.87207c-.312012-.468262-.15625-1.061523.3125-1.373535.468262-.3125,1.061035-.1875,1.373535.280762l1.873047,2.90332Zm7.835938,8.335938v-1.873535c0-1.279785-.280762-1.467285-1.467285-1.467285h-6.181152v3.34082h7.648438Zm0,1.873047h-7.648438v3.309082h6.181152c1.280273,0,1.467285-.280762,1.467285-1.467285v-1.841797Z"/>
    <path class="j" d="m231.048492,38.295464c-.397949.304199-.983887.233887-1.288086-.164062-2.506348-3.255859-5.012695-5.45752-6.441406-6.675293-.959961-.819824-2.154785-1.920898-2.154785-3.302734,0-1.288086,1.030762-2.318848,1.944336-3.091797.655762-.562012,1.522461-1.264648,2.529297-2.178223,1.007324-.913574,2.178223-2.01416,3.443359-3.372559.351074-.375.936523-.398438,1.311523-.046875.374512.351074.397949.937012.046875,1.311523-1.311523,1.405273-2.529785,2.553223-3.583496,3.489746-1.054199.937012-1.920898,1.639648-2.553223,2.178711-.397949.351074-1.311523,1.124023-1.311523,1.709473,0,.632324,1.053711,1.545898,1.499023,1.920898,1.452148,1.241211,4.098633,3.560059,6.722168,6.956055.304199.398438.233887.960449-.164062,1.265137Z"/>
    <path class="j" d="m249.058257,37.66314c-2.061035-.023438-2.998047-1.545898-2.998047-3.443359,0-.491699.046875-1.030762.164062-1.592773s.164062-1.053711.164062-1.475586c0-1.147461-.304688-1.756348-1.522461-1.779785-1.569336-.023438-4.145996,1.779785-5.036133,3.161621-.632324,1.499023-1.217773,3.044922-1.73291,4.59082-.117188.375-.46875.632324-.843262.632324-.585449,0-1.054199-.585449-.866699-1.170898,1.686523-5.105957,4.801758-11.875,7.846191-16.55957.28125-.421387.866699-.562012,1.288574-.28125.421387.28125.538574.843262.257324,1.265137-1.709473,2.623047-3.161621,5.387207-4.333008,7.869629,1.007324-.655762,2.20166-1.217773,3.419922-1.217773,2.178223-.023438,3.208496,1.428711,3.208496,3.489746,0,.562012-.046875,1.171387-.187012,1.827148-.09375.468262-.140625.890137-.140625,1.241211,0,.937012.233887,1.756836,1.311523,1.756836.796387,0,2.225098-.585449,3.653809-2.318848.304688-.351562.843262-.398438,1.194824-.09375.351074.304688.397949.843262.093262,1.194336-1.662598,1.991211-3.419434,2.927734-4.941895,2.904785Z"/>
  </g>
  <g>
    <path class="o" d="m13.466706,1.927016c-3.568223,1.885235-4.133996,5.873472-4.287293,9.536128-.205998,4.921839-.041411,9.94527-1.90962,14.609508-.49622,1.238881-1.870205,3.702432-3.628751,2.911367-.611319-.274996-.912359-.83109-.378774-1.192704.473573-.320943,1.366038-.025382,1.880768.058552,3.447154.562111,6.962183.777741,10.442559,1.024313,7.982159.565508,18.333815,2.274931,24.238288-4.520512,3.013661-3.468414,3.936824-8.364641,1.371921-12.373829-2.681316-4.191153-8.360084-4.42812-11.909514-1.2415-4.00445,3.595129-5.654371,9.882904-5.85391,15.061439-.119332,3.09698.467428,6.024565,1.197397,9.013784.512006,2.096665,1.169219,5.979257-1.526386,7.009196-1.785521.682214-1.010654,3.583706.797519,2.892837,2.106977-.805036,3.507425-2.572797,3.998085-4.770656.600012-2.687691-.266141-5.315222-.873238-7.914717-1.223204-5.237567-.612594-10.943252,1.864089-15.739541.890624-1.724762,2.111297-3.545092,3.937892-4.379991,2.206684-1.00863,4.790012-.134389,5.986663,1.925239,2.426488,4.176374-.407776,8.856647-4.262934,10.887226-3.887767,2.047754-8.380388,1.78452-12.625691,1.55039-3.915972-.215968-7.832337-.471856-11.737994-.831106-1.47631-.135794-2.956043-.273479-4.419544-.514321-1.703832-.280391-3.520237-.482372-4.813351.92374-1.620082,1.761651-1.074427,4.242068.851515,5.522254,1.492875.992323,3.431252.857479,4.963365.021973,2.369919-1.292386,3.390686-4.160198,4.074102-6.603079.781971-2.795169,1.080959-5.710291,1.199479-8.6025.099541-2.429054-.016431-4.911748.342141-7.322471.273868-1.841246.882475-3.445613,2.595378-4.350609,1.707697-.902245.193411-3.492589-1.514157-2.590412h0Z"/>
    <path class="p" d="m18.168229,46.555556c1.930357,0,1.933554-3,0-3-1.930357,0-1.933554,3,0,3h0Z"/>
    <path class="n" d="m13.834896,45.847222c1.447768,0,1.450166-2.25,0-2.25-1.447768,0-1.450166,2.25,0,2.25h0Z"/>
    <path class="m" d="m10.501563,44.25c.965178,0,.966777-1.5,0-1.5-.965178,0-.966777,1.5,0,1.5h0Z"/>
    <path class="k" d="m19.501563,3c1.930357,0,1.933554-3,0-3-1.930357,0-1.933554,3,0,3h0Z"/>
    <path class="l" d="m23.834896,2.958333c1.447768,0,1.450166-2.25,0-2.25-1.447768,0-1.450166,2.25,0,2.25h0Z"/>
    <path class="i" d="m27.168229,3.805556c.965178,0,.966777-1.5,0-1.5-.965178,0-.966777,1.5,0,1.5h0Z"/>
  </g>
</svg>